<mxfile host="app.diagrams.net" agent="Mozilla/5.0 (Windows NT 10.0; Win64; x64) AppleWebKit/537.36 (KHTML, like Gecko) Chrome/135.0.0.0 Safari/537.36" version="26.2.10">
  <diagram name="Страница — 1" id="IiIHjLgcgPe1mLimA3VC">
    <mxGraphModel dx="2796" dy="601" grid="1" gridSize="10" guides="1" tooltips="1" connect="1" arrows="1" fold="1" page="1" pageScale="1" pageWidth="827" pageHeight="1169" background="none" math="0" shadow="0">
      <root>
        <mxCell id="0" />
        <mxCell id="1" parent="0" />
        <mxCell id="HhkN-pGyviHW9je4sgLv-35" value="" style="edgeStyle=orthogonalEdgeStyle;rounded=0;orthogonalLoop=1;jettySize=auto;html=1;strokeColor=#788AA3;fontColor=#46495D;fillColor=#B2C9AB;" parent="1" source="HhkN-pGyviHW9je4sgLv-1" target="HhkN-pGyviHW9je4sgLv-34" edge="1">
          <mxGeometry relative="1" as="geometry" />
        </mxCell>
        <mxCell id="HhkN-pGyviHW9je4sgLv-37" value="" style="edgeStyle=orthogonalEdgeStyle;rounded=0;orthogonalLoop=1;jettySize=auto;html=1;strokeColor=#788AA3;fontColor=#46495D;fillColor=#B2C9AB;" parent="1" source="HhkN-pGyviHW9je4sgLv-1" target="HhkN-pGyviHW9je4sgLv-36" edge="1">
          <mxGeometry relative="1" as="geometry" />
        </mxCell>
        <mxCell id="HhkN-pGyviHW9je4sgLv-39" value="" style="edgeStyle=orthogonalEdgeStyle;rounded=0;orthogonalLoop=1;jettySize=auto;html=1;strokeColor=#788AA3;fontColor=#46495D;fillColor=#B2C9AB;" parent="1" source="HhkN-pGyviHW9je4sgLv-1" target="HhkN-pGyviHW9je4sgLv-38" edge="1">
          <mxGeometry relative="1" as="geometry" />
        </mxCell>
        <mxCell id="HhkN-pGyviHW9je4sgLv-41" value="" style="edgeStyle=orthogonalEdgeStyle;rounded=0;orthogonalLoop=1;jettySize=auto;html=1;strokeColor=#788AA3;fontColor=#46495D;fillColor=#B2C9AB;" parent="1" source="HhkN-pGyviHW9je4sgLv-1" target="HhkN-pGyviHW9je4sgLv-40" edge="1">
          <mxGeometry relative="1" as="geometry" />
        </mxCell>
        <mxCell id="HhkN-pGyviHW9je4sgLv-43" value="" style="edgeStyle=orthogonalEdgeStyle;rounded=0;orthogonalLoop=1;jettySize=auto;html=1;strokeColor=#788AA3;fontColor=#46495D;fillColor=#B2C9AB;" parent="1" source="HhkN-pGyviHW9je4sgLv-1" target="HhkN-pGyviHW9je4sgLv-42" edge="1">
          <mxGeometry relative="1" as="geometry" />
        </mxCell>
        <mxCell id="FRFlXG7ZL1jjnm-62iuR-1" style="edgeStyle=orthogonalEdgeStyle;rounded=0;orthogonalLoop=1;jettySize=auto;html=1;entryX=0;entryY=0.5;entryDx=0;entryDy=0;" parent="1" source="HhkN-pGyviHW9je4sgLv-1" edge="1" target="FRFlXG7ZL1jjnm-62iuR-3">
          <mxGeometry relative="1" as="geometry">
            <mxPoint x="890" y="615" as="targetPoint" />
          </mxGeometry>
        </mxCell>
        <mxCell id="HhkN-pGyviHW9je4sgLv-1" value="&lt;font style=&quot;font-size: 25px;&quot;&gt;Main&lt;/font&gt;" style="rounded=0;whiteSpace=wrap;html=1;labelBackgroundColor=none;fillColor=#B2C9AB;strokeColor=#788AA3;fontColor=#46495D;" parent="1" vertex="1">
          <mxGeometry x="-190" y="585" width="380" height="60" as="geometry" />
        </mxCell>
        <mxCell id="HhkN-pGyviHW9je4sgLv-49" value="" style="edgeStyle=orthogonalEdgeStyle;rounded=0;orthogonalLoop=1;jettySize=auto;html=1;strokeColor=#788AA3;fontColor=#46495D;fillColor=#B2C9AB;" parent="1" source="HhkN-pGyviHW9je4sgLv-34" target="HhkN-pGyviHW9je4sgLv-48" edge="1">
          <mxGeometry relative="1" as="geometry" />
        </mxCell>
        <mxCell id="HhkN-pGyviHW9je4sgLv-34" value="&lt;font style=&quot;font-size: 25px;&quot;&gt;Lexer&lt;/font&gt;" style="rounded=0;whiteSpace=wrap;html=1;labelBackgroundColor=none;fillColor=#B2C9AB;strokeColor=#788AA3;fontColor=#46495D;" parent="1" vertex="1">
          <mxGeometry x="-640" y="795" width="380" height="60" as="geometry" />
        </mxCell>
        <mxCell id="HhkN-pGyviHW9je4sgLv-45" value="" style="edgeStyle=orthogonalEdgeStyle;rounded=0;orthogonalLoop=1;jettySize=auto;html=1;strokeColor=#788AA3;fontColor=#46495D;fillColor=#B2C9AB;" parent="1" source="HhkN-pGyviHW9je4sgLv-36" target="HhkN-pGyviHW9je4sgLv-44" edge="1">
          <mxGeometry relative="1" as="geometry" />
        </mxCell>
        <mxCell id="HhkN-pGyviHW9je4sgLv-36" value="&lt;font style=&quot;font-size: 25px;&quot;&gt;Preprocessor&lt;/font&gt;" style="rounded=0;whiteSpace=wrap;html=1;labelBackgroundColor=none;fillColor=#B2C9AB;strokeColor=#788AA3;fontColor=#46495D;" parent="1" vertex="1">
          <mxGeometry x="250" y="795" width="380" height="60" as="geometry" />
        </mxCell>
        <mxCell id="HhkN-pGyviHW9je4sgLv-51" value="" style="edgeStyle=orthogonalEdgeStyle;rounded=0;orthogonalLoop=1;jettySize=auto;html=1;strokeColor=#788AA3;fontColor=#46495D;fillColor=#B2C9AB;" parent="1" source="HhkN-pGyviHW9je4sgLv-38" target="HhkN-pGyviHW9je4sgLv-50" edge="1">
          <mxGeometry relative="1" as="geometry" />
        </mxCell>
        <mxCell id="HhkN-pGyviHW9je4sgLv-38" value="&lt;font style=&quot;font-size: 25px;&quot;&gt;Assembly generator&lt;/font&gt;" style="rounded=0;whiteSpace=wrap;html=1;labelBackgroundColor=none;fillColor=#B2C9AB;strokeColor=#788AA3;fontColor=#46495D;" parent="1" vertex="1">
          <mxGeometry x="-540" y="320" width="380" height="60" as="geometry" />
        </mxCell>
        <mxCell id="HhkN-pGyviHW9je4sgLv-53" value="" style="edgeStyle=orthogonalEdgeStyle;rounded=0;orthogonalLoop=1;jettySize=auto;html=1;strokeColor=#788AA3;fontColor=#46495D;fillColor=#B2C9AB;" parent="1" source="HhkN-pGyviHW9je4sgLv-40" target="HhkN-pGyviHW9je4sgLv-52" edge="1">
          <mxGeometry relative="1" as="geometry" />
        </mxCell>
        <mxCell id="HhkN-pGyviHW9je4sgLv-40" value="&lt;font style=&quot;font-size: 25px;&quot;&gt;Linker&lt;/font&gt;" style="rounded=0;whiteSpace=wrap;html=1;labelBackgroundColor=none;fillColor=#B2C9AB;strokeColor=#788AA3;fontColor=#46495D;" parent="1" vertex="1">
          <mxGeometry x="174" y="320" width="380" height="60" as="geometry" />
        </mxCell>
        <mxCell id="HhkN-pGyviHW9je4sgLv-47" value="" style="edgeStyle=orthogonalEdgeStyle;rounded=0;orthogonalLoop=1;jettySize=auto;html=1;strokeColor=#788AA3;fontColor=#46495D;fillColor=#B2C9AB;" parent="1" source="HhkN-pGyviHW9je4sgLv-42" target="HhkN-pGyviHW9je4sgLv-46" edge="1">
          <mxGeometry relative="1" as="geometry" />
        </mxCell>
        <mxCell id="HhkN-pGyviHW9je4sgLv-42" value="&lt;font style=&quot;font-size: 25px;&quot;&gt;Binary generator&lt;/font&gt;" style="rounded=0;whiteSpace=wrap;html=1;labelBackgroundColor=none;fillColor=#B2C9AB;strokeColor=#788AA3;fontColor=#46495D;" parent="1" vertex="1">
          <mxGeometry x="-190" y="795" width="380" height="60" as="geometry" />
        </mxCell>
        <mxCell id="HhkN-pGyviHW9je4sgLv-44" value="&lt;font style=&quot;font-size: 25px;&quot;&gt;PreprocessorException&lt;/font&gt;" style="rounded=0;whiteSpace=wrap;html=1;labelBackgroundColor=none;fillColor=#B2C9AB;strokeColor=#788AA3;fontColor=#46495D;" parent="1" vertex="1">
          <mxGeometry x="250" y="935" width="380" height="60" as="geometry" />
        </mxCell>
        <mxCell id="HhkN-pGyviHW9je4sgLv-46" value="&lt;font style=&quot;font-size: 25px;&quot;&gt;BinaryGeneratorException&lt;/font&gt;" style="rounded=0;whiteSpace=wrap;html=1;labelBackgroundColor=none;fillColor=#B2C9AB;strokeColor=#788AA3;fontColor=#46495D;" parent="1" vertex="1">
          <mxGeometry x="-190" y="935" width="380" height="60" as="geometry" />
        </mxCell>
        <mxCell id="HhkN-pGyviHW9je4sgLv-48" value="&lt;font style=&quot;font-size: 25px;&quot;&gt;LexerException&lt;/font&gt;" style="rounded=0;whiteSpace=wrap;html=1;labelBackgroundColor=none;fillColor=#B2C9AB;strokeColor=#788AA3;fontColor=#46495D;" parent="1" vertex="1">
          <mxGeometry x="-640" y="935" width="380" height="60" as="geometry" />
        </mxCell>
        <mxCell id="HhkN-pGyviHW9je4sgLv-50" value="&lt;font style=&quot;font-size: 25px;&quot;&gt;AssemblyGeneratorException&lt;/font&gt;" style="rounded=0;whiteSpace=wrap;html=1;labelBackgroundColor=none;fillColor=#B2C9AB;strokeColor=#788AA3;fontColor=#46495D;" parent="1" vertex="1">
          <mxGeometry x="-540" y="180" width="380" height="60" as="geometry" />
        </mxCell>
        <mxCell id="HhkN-pGyviHW9je4sgLv-52" value="&lt;font style=&quot;font-size: 25px;&quot;&gt;LinkerExceptions&lt;/font&gt;" style="rounded=0;whiteSpace=wrap;html=1;labelBackgroundColor=none;fillColor=#B2C9AB;strokeColor=#788AA3;fontColor=#46495D;" parent="1" vertex="1">
          <mxGeometry x="174" y="180" width="380" height="60" as="geometry" />
        </mxCell>
        <mxCell id="HhkN-pGyviHW9je4sgLv-54" value="&lt;font style=&quot;font-size: 25px;&quot;&gt;Main&lt;/font&gt;" style="rounded=0;whiteSpace=wrap;html=1;labelBackgroundColor=none;fillColor=#B2C9AB;strokeColor=#788AA3;fontColor=#46495D;" parent="1" vertex="1">
          <mxGeometry x="-1207" y="180" width="380" height="60" as="geometry" />
        </mxCell>
        <mxCell id="1Pe37q1wq93f_4s7isEr-17" style="edgeStyle=orthogonalEdgeStyle;rounded=0;orthogonalLoop=1;jettySize=auto;html=1;entryX=0.5;entryY=1;entryDx=0;entryDy=0;" parent="1" source="HhkN-pGyviHW9je4sgLv-55" target="HhkN-pGyviHW9je4sgLv-54" edge="1">
          <mxGeometry relative="1" as="geometry" />
        </mxCell>
        <mxCell id="HhkN-pGyviHW9je4sgLv-55" value="&lt;font style=&quot;font-size: 25px;&quot;&gt;Binary generator&lt;/font&gt;" style="rounded=0;whiteSpace=wrap;html=1;labelBackgroundColor=none;fillColor=#B2C9AB;strokeColor=#788AA3;fontColor=#46495D;" parent="1" vertex="1">
          <mxGeometry x="-1207" y="300" width="380" height="60" as="geometry" />
        </mxCell>
        <mxCell id="1Pe37q1wq93f_4s7isEr-16" style="edgeStyle=orthogonalEdgeStyle;rounded=0;orthogonalLoop=1;jettySize=auto;html=1;entryX=0.5;entryY=1;entryDx=0;entryDy=0;" parent="1" source="HhkN-pGyviHW9je4sgLv-57" target="HhkN-pGyviHW9je4sgLv-55" edge="1">
          <mxGeometry relative="1" as="geometry">
            <Array as="points">
              <mxPoint x="-1017" y="390" />
              <mxPoint x="-1017" y="390" />
            </Array>
          </mxGeometry>
        </mxCell>
        <mxCell id="HhkN-pGyviHW9je4sgLv-57" value="&lt;span style=&quot;font-size: 25px;&quot;&gt;Assembly generator&lt;/span&gt;" style="rounded=0;whiteSpace=wrap;html=1;labelBackgroundColor=none;fillColor=#B2C9AB;strokeColor=#788AA3;fontColor=#46495D;" parent="1" vertex="1">
          <mxGeometry x="-1207" y="410" width="380" height="60" as="geometry" />
        </mxCell>
        <mxCell id="1Pe37q1wq93f_4s7isEr-14" style="edgeStyle=orthogonalEdgeStyle;rounded=0;orthogonalLoop=1;jettySize=auto;html=1;" parent="1" source="HhkN-pGyviHW9je4sgLv-59" target="1Pe37q1wq93f_4s7isEr-13" edge="1">
          <mxGeometry relative="1" as="geometry" />
        </mxCell>
        <mxCell id="HhkN-pGyviHW9je4sgLv-59" value="&lt;font style=&quot;font-size: 25px;&quot;&gt;Preprocessor&lt;/font&gt;" style="rounded=0;whiteSpace=wrap;html=1;labelBackgroundColor=none;fillColor=#B2C9AB;strokeColor=#788AA3;fontColor=#46495D;" parent="1" vertex="1">
          <mxGeometry x="-1207" y="650" width="380" height="60" as="geometry" />
        </mxCell>
        <mxCell id="1Pe37q1wq93f_4s7isEr-11" style="edgeStyle=orthogonalEdgeStyle;rounded=0;orthogonalLoop=1;jettySize=auto;html=1;" parent="1" source="HhkN-pGyviHW9je4sgLv-61" target="HhkN-pGyviHW9je4sgLv-59" edge="1">
          <mxGeometry relative="1" as="geometry">
            <mxPoint x="-1017" y="730" as="targetPoint" />
          </mxGeometry>
        </mxCell>
        <mxCell id="HhkN-pGyviHW9je4sgLv-61" value="&lt;font style=&quot;font-size: 25px;&quot;&gt;Linker&lt;/font&gt;" style="rounded=0;whiteSpace=wrap;html=1;labelBackgroundColor=none;fillColor=#B2C9AB;strokeColor=#788AA3;fontColor=#46495D;" parent="1" vertex="1">
          <mxGeometry x="-1207" y="780" width="380" height="60" as="geometry" />
        </mxCell>
        <mxCell id="1Pe37q1wq93f_4s7isEr-20" style="edgeStyle=orthogonalEdgeStyle;rounded=0;orthogonalLoop=1;jettySize=auto;html=1;entryX=0;entryY=0.5;entryDx=0;entryDy=0;" parent="1" source="m5i5Z3udP00BeDHO9knX-1" target="HhkN-pGyviHW9je4sgLv-55" edge="1">
          <mxGeometry relative="1" as="geometry" />
        </mxCell>
        <mxCell id="m5i5Z3udP00BeDHO9knX-1" value="&lt;font style=&quot;font-size: 22px;&quot;&gt;Binary&lt;/font&gt;" style="rounded=0;whiteSpace=wrap;html=1;fillColor=#a20025;fontColor=#ffffff;strokeColor=#6F0000;" parent="1" vertex="1">
          <mxGeometry x="-1370" y="300" width="120" height="60" as="geometry" />
        </mxCell>
        <mxCell id="1Pe37q1wq93f_4s7isEr-21" style="edgeStyle=orthogonalEdgeStyle;rounded=0;orthogonalLoop=1;jettySize=auto;html=1;entryX=0;entryY=0.5;entryDx=0;entryDy=0;" parent="1" source="m5i5Z3udP00BeDHO9knX-3" target="HhkN-pGyviHW9je4sgLv-57" edge="1">
          <mxGeometry relative="1" as="geometry" />
        </mxCell>
        <mxCell id="m5i5Z3udP00BeDHO9knX-3" value="&lt;font style=&quot;font-size: 22px;&quot;&gt;Assembly&lt;/font&gt;" style="rounded=0;whiteSpace=wrap;html=1;fillColor=#a20025;fontColor=#ffffff;strokeColor=#6F0000;" parent="1" vertex="1">
          <mxGeometry x="-1370" y="410" width="120" height="60" as="geometry" />
        </mxCell>
        <mxCell id="m5i5Z3udP00BeDHO9knX-4" value="" style="endArrow=none;dashed=1;html=1;rounded=0;" parent="1" edge="1">
          <mxGeometry width="50" height="50" relative="1" as="geometry">
            <mxPoint x="-1230" y="860" as="sourcePoint" />
            <mxPoint x="-1230" y="160" as="targetPoint" />
            <Array as="points">
              <mxPoint x="-1230" y="500" />
            </Array>
          </mxGeometry>
        </mxCell>
        <mxCell id="1Pe37q1wq93f_4s7isEr-19" style="edgeStyle=orthogonalEdgeStyle;rounded=0;orthogonalLoop=1;jettySize=auto;html=1;" parent="1" source="m5i5Z3udP00BeDHO9knX-10" target="HhkN-pGyviHW9je4sgLv-54" edge="1">
          <mxGeometry relative="1" as="geometry" />
        </mxCell>
        <mxCell id="m5i5Z3udP00BeDHO9knX-10" value="&lt;font style=&quot;font-size: 19px;&quot;&gt;Executable&lt;/font&gt;" style="rounded=0;whiteSpace=wrap;html=1;fillColor=#a20025;fontColor=#ffffff;strokeColor=#6F0000;" parent="1" vertex="1">
          <mxGeometry x="-1370" y="180" width="120" height="60" as="geometry" />
        </mxCell>
        <mxCell id="1Pe37q1wq93f_4s7isEr-2" style="edgeStyle=orthogonalEdgeStyle;rounded=0;orthogonalLoop=1;jettySize=auto;html=1;" parent="1" source="1Pe37q1wq93f_4s7isEr-1" target="HhkN-pGyviHW9je4sgLv-61" edge="1">
          <mxGeometry relative="1" as="geometry" />
        </mxCell>
        <mxCell id="1Pe37q1wq93f_4s7isEr-1" value="Actor" style="shape=umlActor;verticalLabelPosition=bottom;verticalAlign=top;html=1;outlineConnect=0;" parent="1" vertex="1">
          <mxGeometry x="-1032" y="890" width="30" height="60" as="geometry" />
        </mxCell>
        <mxCell id="1Pe37q1wq93f_4s7isEr-15" style="edgeStyle=orthogonalEdgeStyle;rounded=0;orthogonalLoop=1;jettySize=auto;html=1;entryX=0.5;entryY=1;entryDx=0;entryDy=0;" parent="1" source="1Pe37q1wq93f_4s7isEr-13" target="HhkN-pGyviHW9je4sgLv-57" edge="1">
          <mxGeometry relative="1" as="geometry" />
        </mxCell>
        <mxCell id="1Pe37q1wq93f_4s7isEr-13" value="&lt;font style=&quot;font-size: 25px;&quot;&gt;Lexer&lt;/font&gt;" style="rounded=0;whiteSpace=wrap;html=1;labelBackgroundColor=none;fillColor=#B2C9AB;strokeColor=#788AA3;fontColor=#46495D;" parent="1" vertex="1">
          <mxGeometry x="-1207" y="530" width="380" height="60" as="geometry" />
        </mxCell>
        <mxCell id="FRFlXG7ZL1jjnm-62iuR-5" value="" style="edgeStyle=orthogonalEdgeStyle;rounded=0;orthogonalLoop=1;jettySize=auto;html=1;" parent="1" source="FRFlXG7ZL1jjnm-62iuR-3" target="FRFlXG7ZL1jjnm-62iuR-4" edge="1">
          <mxGeometry relative="1" as="geometry" />
        </mxCell>
        <mxCell id="FRFlXG7ZL1jjnm-62iuR-7" value="" style="edgeStyle=orthogonalEdgeStyle;rounded=0;orthogonalLoop=1;jettySize=auto;html=1;" parent="1" source="FRFlXG7ZL1jjnm-62iuR-3" target="FRFlXG7ZL1jjnm-62iuR-6" edge="1">
          <mxGeometry relative="1" as="geometry" />
        </mxCell>
        <mxCell id="FRFlXG7ZL1jjnm-62iuR-3" value="&lt;font style=&quot;font-size: 25px;&quot;&gt;Strategies&lt;/font&gt;" style="rounded=0;whiteSpace=wrap;html=1;labelBackgroundColor=none;fillColor=#f0a30a;strokeColor=#BD7000;fontColor=#000000;" parent="1" vertex="1">
          <mxGeometry x="1000" y="585" width="380" height="60" as="geometry" />
        </mxCell>
        <mxCell id="FRFlXG7ZL1jjnm-62iuR-9" value="" style="edgeStyle=orthogonalEdgeStyle;rounded=0;orthogonalLoop=1;jettySize=auto;html=1;" parent="1" source="FRFlXG7ZL1jjnm-62iuR-4" target="FRFlXG7ZL1jjnm-62iuR-8" edge="1">
          <mxGeometry relative="1" as="geometry" />
        </mxCell>
        <mxCell id="FRFlXG7ZL1jjnm-62iuR-4" value="&lt;font style=&quot;font-size: 25px;&quot;&gt;VM_strategy&lt;/font&gt;" style="rounded=0;whiteSpace=wrap;html=1;labelBackgroundColor=none;fillColor=#f0a30a;strokeColor=#BD7000;fontColor=#000000;" parent="1" vertex="1">
          <mxGeometry x="850" y="700" width="380" height="60" as="geometry" />
        </mxCell>
        <mxCell id="FRFlXG7ZL1jjnm-62iuR-6" value="&lt;font style=&quot;font-size: 25px;&quot;&gt;Compile_strategy&lt;/font&gt;" style="rounded=0;whiteSpace=wrap;html=1;labelBackgroundColor=none;fillColor=#f0a30a;strokeColor=#BD7000;fontColor=#000000;" parent="1" vertex="1">
          <mxGeometry x="1370" y="700" width="380" height="60" as="geometry" />
        </mxCell>
        <mxCell id="EBaOzZNbVAsvQvHieqdT-2" value="" style="edgeStyle=orthogonalEdgeStyle;rounded=0;orthogonalLoop=1;jettySize=auto;html=1;" edge="1" parent="1" source="FRFlXG7ZL1jjnm-62iuR-8" target="EBaOzZNbVAsvQvHieqdT-1">
          <mxGeometry relative="1" as="geometry" />
        </mxCell>
        <mxCell id="FRFlXG7ZL1jjnm-62iuR-8" value="&lt;font style=&quot;font-size: 25px;&quot;&gt;VirtualMachine&lt;/font&gt;" style="rounded=0;whiteSpace=wrap;html=1;labelBackgroundColor=none;fillColor=#f0a30a;strokeColor=#BD7000;fontColor=#000000;" parent="1" vertex="1">
          <mxGeometry x="850" y="855" width="380" height="60" as="geometry" />
        </mxCell>
        <mxCell id="FRFlXG7ZL1jjnm-62iuR-13" value="" style="edgeStyle=orthogonalEdgeStyle;rounded=0;orthogonalLoop=1;jettySize=auto;html=1;" parent="1" source="FRFlXG7ZL1jjnm-62iuR-10" target="FRFlXG7ZL1jjnm-62iuR-12" edge="1">
          <mxGeometry relative="1" as="geometry" />
        </mxCell>
        <mxCell id="FRFlXG7ZL1jjnm-62iuR-14" value="" style="edgeStyle=orthogonalEdgeStyle;rounded=0;orthogonalLoop=1;jettySize=auto;html=1;" parent="1" source="FRFlXG7ZL1jjnm-62iuR-10" target="FRFlXG7ZL1jjnm-62iuR-12" edge="1">
          <mxGeometry relative="1" as="geometry" />
        </mxCell>
        <mxCell id="FRFlXG7ZL1jjnm-62iuR-15" style="edgeStyle=orthogonalEdgeStyle;rounded=0;orthogonalLoop=1;jettySize=auto;html=1;entryX=0.5;entryY=0;entryDx=0;entryDy=0;" parent="1" source="FRFlXG7ZL1jjnm-62iuR-10" target="FRFlXG7ZL1jjnm-62iuR-16" edge="1">
          <mxGeometry relative="1" as="geometry">
            <mxPoint x="1390" y="280" as="targetPoint" />
          </mxGeometry>
        </mxCell>
        <mxCell id="FRFlXG7ZL1jjnm-62iuR-10" value="&lt;font style=&quot;font-size: 25px;&quot;&gt;VM_console&lt;/font&gt;" style="rounded=0;whiteSpace=wrap;html=1;labelBackgroundColor=none;fillColor=#0050ef;strokeColor=#001DBC;fontColor=#ffffff;" parent="1" vertex="1">
          <mxGeometry x="1030" y="130" width="380" height="60" as="geometry" />
        </mxCell>
        <mxCell id="FRFlXG7ZL1jjnm-62iuR-11" value="Actor" style="shape=umlActor;verticalLabelPosition=bottom;verticalAlign=top;html=1;outlineConnect=0;" parent="1" vertex="1">
          <mxGeometry x="1210" y="40" width="30" height="60" as="geometry" />
        </mxCell>
        <mxCell id="FRFlXG7ZL1jjnm-62iuR-12" value="&lt;font style=&quot;font-size: 25px;&quot;&gt;GUI&lt;/font&gt;" style="rounded=0;whiteSpace=wrap;html=1;labelBackgroundColor=none;fillColor=#0050ef;strokeColor=#001DBC;fontColor=#ffffff;" parent="1" vertex="1">
          <mxGeometry x="827" y="280" width="380" height="60" as="geometry" />
        </mxCell>
        <mxCell id="FRFlXG7ZL1jjnm-62iuR-16" value="&lt;font style=&quot;font-size: 25px;&quot;&gt;Logic&lt;/font&gt;" style="rounded=0;whiteSpace=wrap;html=1;labelBackgroundColor=none;fillColor=#0050ef;strokeColor=#001DBC;fontColor=#ffffff;" parent="1" vertex="1">
          <mxGeometry x="1290" y="280" width="380" height="60" as="geometry" />
        </mxCell>
        <mxCell id="EBaOzZNbVAsvQvHieqdT-4" value="" style="edgeStyle=orthogonalEdgeStyle;rounded=0;orthogonalLoop=1;jettySize=auto;html=1;" edge="1" parent="1" source="EBaOzZNbVAsvQvHieqdT-1" target="EBaOzZNbVAsvQvHieqdT-3">
          <mxGeometry relative="1" as="geometry" />
        </mxCell>
        <mxCell id="EBaOzZNbVAsvQvHieqdT-5" value="" style="edgeStyle=orthogonalEdgeStyle;rounded=0;orthogonalLoop=1;jettySize=auto;html=1;" edge="1" parent="1" source="EBaOzZNbVAsvQvHieqdT-1" target="EBaOzZNbVAsvQvHieqdT-3">
          <mxGeometry relative="1" as="geometry" />
        </mxCell>
        <mxCell id="EBaOzZNbVAsvQvHieqdT-6" style="edgeStyle=orthogonalEdgeStyle;rounded=0;orthogonalLoop=1;jettySize=auto;html=1;entryX=0.5;entryY=0;entryDx=0;entryDy=0;" edge="1" parent="1" source="EBaOzZNbVAsvQvHieqdT-1" target="EBaOzZNbVAsvQvHieqdT-7">
          <mxGeometry relative="1" as="geometry">
            <mxPoint x="1220" y="1160" as="targetPoint" />
          </mxGeometry>
        </mxCell>
        <mxCell id="EBaOzZNbVAsvQvHieqdT-1" value="&lt;font style=&quot;font-size: 25px;&quot;&gt;Garbage collector&lt;/font&gt;" style="rounded=0;whiteSpace=wrap;html=1;labelBackgroundColor=none;fillColor=#f0a30a;strokeColor=#BD7000;fontColor=#000000;" vertex="1" parent="1">
          <mxGeometry x="850" y="995" width="380" height="60" as="geometry" />
        </mxCell>
        <mxCell id="EBaOzZNbVAsvQvHieqdT-3" value="&lt;font style=&quot;font-size: 25px;&quot;&gt;Collector with stop&lt;/font&gt;" style="rounded=0;whiteSpace=wrap;html=1;labelBackgroundColor=none;fillColor=#f0a30a;strokeColor=#BD7000;fontColor=#000000;" vertex="1" parent="1">
          <mxGeometry x="630" y="1160" width="380" height="60" as="geometry" />
        </mxCell>
        <mxCell id="EBaOzZNbVAsvQvHieqdT-7" value="&lt;font style=&quot;font-size: 25px;&quot;&gt;Parallel collector&lt;/font&gt;" style="rounded=0;whiteSpace=wrap;html=1;labelBackgroundColor=none;fillColor=#f0a30a;strokeColor=#BD7000;fontColor=#000000;" vertex="1" parent="1">
          <mxGeometry x="1050" y="1160" width="380" height="60" as="geometry" />
        </mxCell>
      </root>
    </mxGraphModel>
  </diagram>
</mxfile>
